<mxfile host="app.diagrams.net" modified="2023-10-01T13:55:45.592Z" agent="Mozilla/5.0 (Windows NT 10.0; Win64; x64) AppleWebKit/537.36 (KHTML, like Gecko) Chrome/116.0.0.0 Safari/537.36 OPR/102.0.0.0" etag="pMJlFY0yKmd6ZLQR_5QE" version="22.0.0" type="github">
  <diagram id="C5RBs43oDa-KdzZeNtuy" name="Page-1">
    <mxGraphModel dx="841" dy="452" grid="1" gridSize="10" guides="1" tooltips="1" connect="1" arrows="1" fold="1" page="1" pageScale="1" pageWidth="827" pageHeight="1169" math="0" shadow="0">
      <root>
        <mxCell id="WIyWlLk6GJQsqaUBKTNV-0" />
        <mxCell id="WIyWlLk6GJQsqaUBKTNV-1" parent="WIyWlLk6GJQsqaUBKTNV-0" />
        <mxCell id="uHOlM0p7fOFn6aHK0Yec-37" style="edgeStyle=orthogonalEdgeStyle;rounded=0;orthogonalLoop=1;jettySize=auto;html=1;entryX=0.5;entryY=0;entryDx=0;entryDy=0;" edge="1" parent="WIyWlLk6GJQsqaUBKTNV-1" source="uHOlM0p7fOFn6aHK0Yec-11" target="uHOlM0p7fOFn6aHK0Yec-15">
          <mxGeometry relative="1" as="geometry" />
        </mxCell>
        <mxCell id="uHOlM0p7fOFn6aHK0Yec-11" value="AddressBook" style="swimlane;fontStyle=1;align=center;verticalAlign=top;childLayout=stackLayout;horizontal=1;startSize=26;horizontalStack=0;resizeParent=1;resizeParentMax=0;resizeLast=0;collapsible=1;marginBottom=0;whiteSpace=wrap;html=1;" vertex="1" parent="WIyWlLk6GJQsqaUBKTNV-1">
          <mxGeometry x="310" y="20" width="290" height="220" as="geometry" />
        </mxCell>
        <mxCell id="uHOlM0p7fOFn6aHK0Yec-12" value="- data: dict&amp;nbsp;&lt;br&gt;- file: str&lt;br&gt;- last_record_id: int&lt;br&gt;- records: List[Record]  " style="text;strokeColor=none;fillColor=none;align=left;verticalAlign=top;spacingLeft=4;spacingRight=4;overflow=hidden;rotatable=0;points=[[0,0.5],[1,0.5]];portConstraint=eastwest;whiteSpace=wrap;html=1;" vertex="1" parent="uHOlM0p7fOFn6aHK0Yec-11">
          <mxGeometry y="26" width="290" height="74" as="geometry" />
        </mxCell>
        <mxCell id="uHOlM0p7fOFn6aHK0Yec-13" value="" style="line;strokeWidth=1;fillColor=none;align=left;verticalAlign=middle;spacingTop=-1;spacingLeft=3;spacingRight=3;rotatable=0;labelPosition=right;points=[];portConstraint=eastwest;strokeColor=inherit;" vertex="1" parent="uHOlM0p7fOFn6aHK0Yec-11">
          <mxGeometry y="100" width="290" height="10" as="geometry" />
        </mxCell>
        <mxCell id="uHOlM0p7fOFn6aHK0Yec-14" value=" + dump(): None&lt;br&gt;+ load(): None&lt;br&gt;+ search(search_str: str): List[Record]&lt;br&gt;+ add_record(record: Record): None&lt;br&gt;+ __getitem__(name: str): Record&lt;br&gt;+ find_records_by_name(name: str): List[Record]&lt;br&gt;+ find_records_by_phone(phone: str): List[Record]" style="text;strokeColor=none;fillColor=none;align=left;verticalAlign=top;spacingLeft=4;spacingRight=4;overflow=hidden;rotatable=0;points=[[0,0.5],[1,0.5]];portConstraint=eastwest;whiteSpace=wrap;html=1;" vertex="1" parent="uHOlM0p7fOFn6aHK0Yec-11">
          <mxGeometry y="110" width="290" height="110" as="geometry" />
        </mxCell>
        <mxCell id="uHOlM0p7fOFn6aHK0Yec-38" style="edgeStyle=orthogonalEdgeStyle;rounded=0;orthogonalLoop=1;jettySize=auto;html=1;entryX=0.5;entryY=0;entryDx=0;entryDy=0;" edge="1" parent="WIyWlLk6GJQsqaUBKTNV-1" source="uHOlM0p7fOFn6aHK0Yec-15" target="uHOlM0p7fOFn6aHK0Yec-19">
          <mxGeometry relative="1" as="geometry" />
        </mxCell>
        <mxCell id="uHOlM0p7fOFn6aHK0Yec-15" value="Record" style="swimlane;fontStyle=1;align=center;verticalAlign=top;childLayout=stackLayout;horizontal=1;startSize=26;horizontalStack=0;resizeParent=1;resizeParentMax=0;resizeLast=0;collapsible=1;marginBottom=0;whiteSpace=wrap;html=1;" vertex="1" parent="WIyWlLk6GJQsqaUBKTNV-1">
          <mxGeometry x="310" y="260" width="290" height="170" as="geometry" />
        </mxCell>
        <mxCell id="uHOlM0p7fOFn6aHK0Yec-16" value="- name: Name&lt;br&gt;- phones: List[Phone]&lt;br&gt;- birthday: Birthday   " style="text;strokeColor=none;fillColor=none;align=left;verticalAlign=top;spacingLeft=4;spacingRight=4;overflow=hidden;rotatable=0;points=[[0,0.5],[1,0.5]];portConstraint=eastwest;whiteSpace=wrap;html=1;" vertex="1" parent="uHOlM0p7fOFn6aHK0Yec-15">
          <mxGeometry y="26" width="290" height="54" as="geometry" />
        </mxCell>
        <mxCell id="uHOlM0p7fOFn6aHK0Yec-17" value="" style="line;strokeWidth=1;fillColor=none;align=left;verticalAlign=middle;spacingTop=-1;spacingLeft=3;spacingRight=3;rotatable=0;labelPosition=right;points=[];portConstraint=eastwest;strokeColor=inherit;" vertex="1" parent="uHOlM0p7fOFn6aHK0Yec-15">
          <mxGeometry y="80" width="290" height="8" as="geometry" />
        </mxCell>
        <mxCell id="uHOlM0p7fOFn6aHK0Yec-18" value="+ add_phone(phone: Phone): None&lt;br&gt;+ remove_phone(phone: Phone): None&lt;br&gt;+ edit_phone(old_phone: str, &lt;br&gt;new_phone: str): None&lt;br&gt;+ days_to_birthday(): int or None" style="text;strokeColor=none;fillColor=none;align=left;verticalAlign=top;spacingLeft=4;spacingRight=4;overflow=hidden;rotatable=0;points=[[0,0.5],[1,0.5]];portConstraint=eastwest;whiteSpace=wrap;html=1;" vertex="1" parent="uHOlM0p7fOFn6aHK0Yec-15">
          <mxGeometry y="88" width="290" height="82" as="geometry" />
        </mxCell>
        <mxCell id="uHOlM0p7fOFn6aHK0Yec-39" style="edgeStyle=orthogonalEdgeStyle;rounded=0;orthogonalLoop=1;jettySize=auto;html=1;entryX=0.5;entryY=0;entryDx=0;entryDy=0;" edge="1" parent="WIyWlLk6GJQsqaUBKTNV-1" source="uHOlM0p7fOFn6aHK0Yec-19" target="uHOlM0p7fOFn6aHK0Yec-27">
          <mxGeometry relative="1" as="geometry" />
        </mxCell>
        <mxCell id="uHOlM0p7fOFn6aHK0Yec-19" value="Name" style="swimlane;fontStyle=1;align=center;verticalAlign=top;childLayout=stackLayout;horizontal=1;startSize=26;horizontalStack=0;resizeParent=1;resizeParentMax=0;resizeLast=0;collapsible=1;marginBottom=0;whiteSpace=wrap;html=1;" vertex="1" parent="WIyWlLk6GJQsqaUBKTNV-1">
          <mxGeometry x="310" y="450" width="290" height="90" as="geometry" />
        </mxCell>
        <mxCell id="uHOlM0p7fOFn6aHK0Yec-20" value="- value: str" style="text;strokeColor=none;fillColor=none;align=left;verticalAlign=top;spacingLeft=4;spacingRight=4;overflow=hidden;rotatable=0;points=[[0,0.5],[1,0.5]];portConstraint=eastwest;whiteSpace=wrap;html=1;" vertex="1" parent="uHOlM0p7fOFn6aHK0Yec-19">
          <mxGeometry y="26" width="290" height="24" as="geometry" />
        </mxCell>
        <mxCell id="uHOlM0p7fOFn6aHK0Yec-21" value="" style="line;strokeWidth=1;fillColor=none;align=left;verticalAlign=middle;spacingTop=-1;spacingLeft=3;spacingRight=3;rotatable=0;labelPosition=right;points=[];portConstraint=eastwest;strokeColor=inherit;" vertex="1" parent="uHOlM0p7fOFn6aHK0Yec-19">
          <mxGeometry y="50" width="290" height="10" as="geometry" />
        </mxCell>
        <mxCell id="uHOlM0p7fOFn6aHK0Yec-22" value="+ edit(new_value: str): None " style="text;strokeColor=none;fillColor=none;align=left;verticalAlign=top;spacingLeft=4;spacingRight=4;overflow=hidden;rotatable=0;points=[[0,0.5],[1,0.5]];portConstraint=eastwest;whiteSpace=wrap;html=1;" vertex="1" parent="uHOlM0p7fOFn6aHK0Yec-19">
          <mxGeometry y="60" width="290" height="30" as="geometry" />
        </mxCell>
        <mxCell id="uHOlM0p7fOFn6aHK0Yec-41" style="edgeStyle=orthogonalEdgeStyle;rounded=0;orthogonalLoop=1;jettySize=auto;html=1;" edge="1" parent="WIyWlLk6GJQsqaUBKTNV-1" source="uHOlM0p7fOFn6aHK0Yec-23" target="uHOlM0p7fOFn6aHK0Yec-31">
          <mxGeometry relative="1" as="geometry" />
        </mxCell>
        <mxCell id="uHOlM0p7fOFn6aHK0Yec-23" value="Birthday" style="swimlane;fontStyle=1;align=center;verticalAlign=top;childLayout=stackLayout;horizontal=1;startSize=26;horizontalStack=0;resizeParent=1;resizeParentMax=0;resizeLast=0;collapsible=1;marginBottom=0;whiteSpace=wrap;html=1;" vertex="1" parent="WIyWlLk6GJQsqaUBKTNV-1">
          <mxGeometry x="310" y="680" width="290" height="80" as="geometry" />
        </mxCell>
        <mxCell id="uHOlM0p7fOFn6aHK0Yec-24" value="- value: datetime.date    " style="text;strokeColor=none;fillColor=none;align=left;verticalAlign=top;spacingLeft=4;spacingRight=4;overflow=hidden;rotatable=0;points=[[0,0.5],[1,0.5]];portConstraint=eastwest;whiteSpace=wrap;html=1;" vertex="1" parent="uHOlM0p7fOFn6aHK0Yec-23">
          <mxGeometry y="26" width="290" height="24" as="geometry" />
        </mxCell>
        <mxCell id="uHOlM0p7fOFn6aHK0Yec-25" value="" style="line;strokeWidth=1;fillColor=none;align=left;verticalAlign=middle;spacingTop=-1;spacingLeft=3;spacingRight=3;rotatable=0;labelPosition=right;points=[];portConstraint=eastwest;strokeColor=inherit;" vertex="1" parent="uHOlM0p7fOFn6aHK0Yec-23">
          <mxGeometry y="50" width="290" height="8" as="geometry" />
        </mxCell>
        <mxCell id="uHOlM0p7fOFn6aHK0Yec-26" value="+ validate_birthday(value: str): datetime.date" style="text;strokeColor=none;fillColor=none;align=left;verticalAlign=top;spacingLeft=4;spacingRight=4;overflow=hidden;rotatable=0;points=[[0,0.5],[1,0.5]];portConstraint=eastwest;whiteSpace=wrap;html=1;" vertex="1" parent="uHOlM0p7fOFn6aHK0Yec-23">
          <mxGeometry y="58" width="290" height="22" as="geometry" />
        </mxCell>
        <mxCell id="uHOlM0p7fOFn6aHK0Yec-40" style="edgeStyle=orthogonalEdgeStyle;rounded=0;orthogonalLoop=1;jettySize=auto;html=1;entryX=0.5;entryY=0;entryDx=0;entryDy=0;" edge="1" parent="WIyWlLk6GJQsqaUBKTNV-1" source="uHOlM0p7fOFn6aHK0Yec-27" target="uHOlM0p7fOFn6aHK0Yec-23">
          <mxGeometry relative="1" as="geometry" />
        </mxCell>
        <mxCell id="uHOlM0p7fOFn6aHK0Yec-27" value="Phone" style="swimlane;fontStyle=1;align=center;verticalAlign=top;childLayout=stackLayout;horizontal=1;startSize=26;horizontalStack=0;resizeParent=1;resizeParentMax=0;resizeLast=0;collapsible=1;marginBottom=0;whiteSpace=wrap;html=1;" vertex="1" parent="WIyWlLk6GJQsqaUBKTNV-1">
          <mxGeometry x="310" y="570" width="290" height="86" as="geometry" />
        </mxCell>
        <mxCell id="uHOlM0p7fOFn6aHK0Yec-28" value="- value: str        " style="text;strokeColor=none;fillColor=none;align=left;verticalAlign=top;spacingLeft=4;spacingRight=4;overflow=hidden;rotatable=0;points=[[0,0.5],[1,0.5]];portConstraint=eastwest;whiteSpace=wrap;html=1;" vertex="1" parent="uHOlM0p7fOFn6aHK0Yec-27">
          <mxGeometry y="26" width="290" height="26" as="geometry" />
        </mxCell>
        <mxCell id="uHOlM0p7fOFn6aHK0Yec-29" value="" style="line;strokeWidth=1;fillColor=none;align=left;verticalAlign=middle;spacingTop=-1;spacingLeft=3;spacingRight=3;rotatable=0;labelPosition=right;points=[];portConstraint=eastwest;strokeColor=inherit;" vertex="1" parent="uHOlM0p7fOFn6aHK0Yec-27">
          <mxGeometry y="52" width="290" height="8" as="geometry" />
        </mxCell>
        <mxCell id="uHOlM0p7fOFn6aHK0Yec-30" value="+ validate_phone(value: str): str" style="text;strokeColor=none;fillColor=none;align=left;verticalAlign=top;spacingLeft=4;spacingRight=4;overflow=hidden;rotatable=0;points=[[0,0.5],[1,0.5]];portConstraint=eastwest;whiteSpace=wrap;html=1;" vertex="1" parent="uHOlM0p7fOFn6aHK0Yec-27">
          <mxGeometry y="60" width="290" height="26" as="geometry" />
        </mxCell>
        <mxCell id="uHOlM0p7fOFn6aHK0Yec-31" value="Field" style="swimlane;fontStyle=1;align=center;verticalAlign=top;childLayout=stackLayout;horizontal=1;startSize=26;horizontalStack=0;resizeParent=1;resizeParentMax=0;resizeLast=0;collapsible=1;marginBottom=0;whiteSpace=wrap;html=1;" vertex="1" parent="WIyWlLk6GJQsqaUBKTNV-1">
          <mxGeometry x="310" y="780" width="290" height="86" as="geometry" />
        </mxCell>
        <mxCell id="uHOlM0p7fOFn6aHK0Yec-32" value="- value: Any   " style="text;strokeColor=none;fillColor=none;align=left;verticalAlign=top;spacingLeft=4;spacingRight=4;overflow=hidden;rotatable=0;points=[[0,0.5],[1,0.5]];portConstraint=eastwest;whiteSpace=wrap;html=1;" vertex="1" parent="uHOlM0p7fOFn6aHK0Yec-31">
          <mxGeometry y="26" width="290" height="26" as="geometry" />
        </mxCell>
        <mxCell id="uHOlM0p7fOFn6aHK0Yec-33" value="" style="line;strokeWidth=1;fillColor=none;align=left;verticalAlign=middle;spacingTop=-1;spacingLeft=3;spacingRight=3;rotatable=0;labelPosition=right;points=[];portConstraint=eastwest;strokeColor=inherit;" vertex="1" parent="uHOlM0p7fOFn6aHK0Yec-31">
          <mxGeometry y="52" width="290" height="8" as="geometry" />
        </mxCell>
        <mxCell id="uHOlM0p7fOFn6aHK0Yec-34" value="+ edit(new_value: Any): None" style="text;strokeColor=none;fillColor=none;align=left;verticalAlign=top;spacingLeft=4;spacingRight=4;overflow=hidden;rotatable=0;points=[[0,0.5],[1,0.5]];portConstraint=eastwest;whiteSpace=wrap;html=1;" vertex="1" parent="uHOlM0p7fOFn6aHK0Yec-31">
          <mxGeometry y="60" width="290" height="26" as="geometry" />
        </mxCell>
      </root>
    </mxGraphModel>
  </diagram>
</mxfile>
